<?xml version="1.0" encoding="utf-8"?>
<!-- Generator: Adobe Illustrator 26.2.1, SVG Export Plug-In . SVG Version: 6.00 Build 0)  -->
<svg version="1.1" id="图层_1" xmlns="http://www.w3.org/2000/svg" xmlns:xlink="http://www.w3.org/1999/xlink" x="0px" y="0px"
	 viewBox="0 0 112 22" style="enable-background:new 0 0 112 22;" xml:space="preserve">
<style type="text/css">
	.st0{fill:#A0C0E0;}
</style>
<g>
	<g>
		<path class="st0" d="M4.6,14.3V8c0-0.1,0.1-0.2,0.2-0.3l5.7-3.5c0.1-0.1,0.2-0.1,0.3,0l1.4,0.6c0.1,0.1,0.2,0.2,0.2,0.3V10
			c0,0.3-0.3,0.4-0.5,0.3L8.8,8.9c-0.3-0.1-0.5,0-0.5,0.3v6.6c0,0.3-0.3,0.4-0.5,0.3l-3-1.5C4.7,14.5,4.6,14.4,4.6,14.3z"/>
		<path class="st0" d="M17.8,7.7V14c0,0.1-0.1,0.2-0.2,0.3L12,17.8c-0.1,0.1-0.2,0.1-0.3,0l-1.4-0.6C10.1,17.1,10,17,10,16.8V12
			c0-0.3,0.3-0.4,0.5-0.3l3.1,1.4c0.2,0.1,0.5-0.1,0.5-0.3V6.2c0-0.3,0.3-0.4,0.5-0.3l3,1.5C17.8,7.5,17.8,7.6,17.8,7.7z"/>
	</g>
	<g>
		<g>
			<path class="st0" d="M26.2,6c1.6,0,2.8,0.4,3.7,1.3c0.8,0.8,1.2,2,1.2,3.6s-0.4,2.8-1.2,3.6c-0.8,0.9-2,1.3-3.7,1.3h-3.6V6H26.2z
				 M24.2,14.6h1.7c1.2,0,2.1-0.3,2.7-0.9c0.6-0.6,0.8-1.5,0.8-2.7c0-1.3-0.3-2.2-0.8-2.7c-0.6-0.6-1.5-0.8-2.7-0.8h-1.7V14.6z"/>
			<path class="st0" d="M26.2,15.9h-3.7v-10h3.7c1.7,0,2.9,0.4,3.8,1.3c0.8,0.8,1.2,2.1,1.2,3.7c0,1.6-0.4,2.9-1.2,3.7
				C29.2,15.5,28,15.9,26.2,15.9z M22.7,15.7h3.5c1.7,0,2.8-0.4,3.6-1.3c0.8-0.8,1.2-2,1.2-3.5s-0.4-2.7-1.2-3.5
				c-0.9-0.9-2-1.3-3.6-1.3h-3.5V15.7z M25.9,14.7h-1.8V7.4h1.8c1.3,0,2.2,0.3,2.8,0.8c0.5,0.5,0.8,1.5,0.8,2.8
				c0,1.3-0.3,2.2-0.8,2.8C28.1,14.4,27.1,14.7,25.9,14.7z M24.3,14.5h1.6c1.2,0,2-0.3,2.6-0.9c0.5-0.5,0.8-1.3,0.8-2.6
				c0-1.2-0.3-2.1-0.8-2.6c-0.5-0.5-1.3-0.8-2.6-0.8h-1.6V14.5z"/>
		</g>
		<g>
			<path class="st0" d="M38.3,9.8c0.6,0.7,0.9,1.7,0.9,3h-5.4c0.1,0.7,0.2,1.2,0.5,1.5s0.8,0.5,1.3,0.5s0.9-0.1,1.2-0.3
				c0.2-0.2,0.4-0.5,0.6-0.9H39c-0.2,0.7-0.5,1.2-1,1.7c-0.6,0.5-1.4,0.8-2.4,0.8c-1.1,0-1.9-0.3-2.5-1c-0.7-0.7-1-1.6-1-2.8
				c0-1.1,0.3-2,0.9-2.7c0.6-0.7,1.5-1.1,2.5-1.1C36.7,8.6,37.6,9,38.3,9.8z M34.3,10.3c-0.3,0.3-0.5,0.7-0.6,1.3h3.7
				c-0.1-1.2-0.8-1.7-1.9-1.7C35.1,9.9,34.6,10,34.3,10.3z"/>
			<path class="st0" d="M35.6,16.2c-1.2,0-2-0.3-2.6-1c-0.7-0.7-1-1.6-1-2.9c0-1.1,0.3-2.1,0.9-2.8c0.6-0.7,1.6-1.1,2.6-1.1
				c1.3,0.1,2.2,0.5,2.9,1.3l0,0c0.6,0.7,0.9,1.8,0.9,3.1v0.1h-5.4c0.1,0.6,0.2,1,0.4,1.3c0.3,0.3,0.8,0.5,1.2,0.5
				c0.5,0,0.9-0.1,1.1-0.3c0.2-0.2,0.4-0.5,0.6-0.9l0-0.1h1.8l0,0.2c-0.2,0.7-0.5,1.2-1,1.8C37.4,15.9,36.6,16.2,35.6,16.2z
				 M35.5,8.6c-0.9,0-1.8,0.4-2.4,1.1c-0.6,0.7-0.9,1.6-0.9,2.6c0,1.2,0.3,2.1,1,2.7c0.6,0.7,1.3,1,2.4,1c0.9,0,1.7-0.3,2.3-0.8
				c0.4-0.4,0.7-0.9,0.9-1.5h-1.4c-0.2,0.4-0.4,0.7-0.6,0.9c-0.3,0.2-0.8,0.3-1.3,0.3c-0.5,0-1.1-0.2-1.4-0.5
				c-0.3-0.3-0.4-0.9-0.5-1.6l0-0.1h5.4c0-1.2-0.3-2.1-0.9-2.8C37.5,9.1,36.7,8.7,35.5,8.6z M37.5,11.7h-4l0-0.1
				c0.1-0.6,0.3-1,0.6-1.4l0,0c0.4-0.4,1-0.4,1.3-0.4c1.2,0,1.9,0.6,2,1.8L37.5,11.7z M33.9,11.5h3.4c-0.1-1-0.7-1.4-1.8-1.4
				c-0.5,0-0.9,0.1-1.1,0.4C34.1,10.7,33.9,11,33.9,11.5z"/>
		</g>
		<g>
			<path class="st0" d="M45.8,9.2c0.6,0.4,0.9,1.1,1.1,2h-1.6c-0.1-0.5-0.3-0.8-0.6-1S44,9.9,43.5,9.9c-0.6,0-1,0.2-1.4,0.7
				c-0.3,0.4-0.5,1-0.5,1.8s0.2,1.4,0.5,1.9c0.3,0.4,0.8,0.7,1.4,0.7c1.1,0,1.6-0.5,1.8-1.6h1.6c-0.2,1-0.5,1.7-1.1,2.2
				s-1.3,0.7-2.2,0.7c-1.1,0-2-0.4-2.6-1.1c-0.6-0.7-0.9-1.6-0.9-2.7s0.3-2,0.9-2.7c0.6-0.8,1.5-1.1,2.6-1.1
				C44.5,8.6,45.3,8.8,45.8,9.2z"/>
			<path class="st0" d="M43.6,16.4c-1.1,0-2.1-0.4-2.7-1.1c-0.6-0.7-0.9-1.7-0.9-2.8s0.3-2.1,0.9-2.8c0.6-0.8,1.5-1.1,2.7-1.1
				c0.9-0.1,1.7,0.1,2.3,0.5c0.6,0.4,0.9,1,1.1,2.1l0,0.2h-1.9l0-0.1c-0.1-0.4-0.3-0.7-0.5-0.9C44.4,10.1,44,10,43.5,10
				c-0.6,0-0.9,0.2-1.3,0.7c-0.3,0.4-0.5,1-0.5,1.7c0,0.7,0.2,1.3,0.5,1.8c0.3,0.4,0.8,0.6,1.3,0.6c1,0,1.5-0.4,1.7-1.5l0-0.1h1.9
				l0,0.1c-0.2,1.1-0.6,1.8-1.1,2.3C45.3,16.2,44.6,16.4,43.6,16.4z M44,8.8c-0.1,0-0.3,0-0.4,0c-1.2,0-2,0.3-2.5,1.1
				c-0.6,0.7-0.9,1.6-0.9,2.6s0.3,1.9,0.9,2.6c0.6,0.7,1.5,1.1,2.5,1.1c0.9,0,1.6-0.2,2.1-0.7c0.5-0.4,0.8-1,1-2h-1.3
				c-0.2,1.1-0.8,1.6-1.9,1.6c-0.6,0-1.1-0.3-1.5-0.8c-0.4-0.6-0.5-1.2-0.5-2c0-0.8,0.2-1.4,0.5-1.9c0.4-0.5,0.9-0.8,1.5-0.8
				c0.5,0,0.9,0.1,1.3,0.3c0.3,0.2,0.5,0.5,0.6,1h1.3c-0.2-0.9-0.5-1.5-1-1.8l0,0C45.3,9,44.7,8.8,44,8.8z"/>
		</g>
		<g>
			<path class="st0" d="M52.5,8.8v1.6c-0.4-0.1-0.7-0.2-1-0.2c-0.4,0-0.8,0.2-1.1,0.5c-0.4,0.4-0.6,0.9-0.6,1.5V16h-1.6V8.8h1.6v1
				C50,9.4,50.2,9.2,50.5,9c0.3-0.3,0.7-0.4,1.1-0.4C51.9,8.6,52.2,8.6,52.5,8.8z"/>
			<path class="st0" d="M49.9,16.1h-1.8V8.7h1.8v0.7c0.2-0.2,0.3-0.3,0.5-0.5c0.3-0.3,0.7-0.4,1.2-0.4c0.3,0,0.6,0,1,0.2l0.1,0v1.8
				l-0.4-0.1c-0.3-0.1-0.5-0.1-0.7-0.1c-0.3,0-0.7,0.2-1,0.5c-0.4,0.4-0.6,0.8-0.6,1.4V16.1z M48.3,15.9h1.3v-3.7
				c0-0.6,0.2-1.2,0.6-1.6c0.3-0.3,0.8-0.5,1.2-0.5c0.3,0,0.5,0.1,0.8,0.1l0.1,0V8.9c-0.3-0.1-0.5-0.1-0.8-0.1c-0.4,0-0.8,0.1-1,0.4
				c-0.3,0.2-0.5,0.4-0.7,0.8l-0.2,0.5V8.9h-1.3V15.9z"/>
		</g>
		<g>
			<path class="st0" d="M59.1,9.8c0.6,0.7,0.9,1.7,0.9,3h-5.4c0.1,0.7,0.2,1.2,0.5,1.5s0.8,0.5,1.3,0.5s0.9-0.1,1.2-0.3
				c0.2-0.2,0.4-0.5,0.6-0.9h1.6c-0.2,0.7-0.5,1.2-1,1.7c-0.6,0.5-1.4,0.8-2.4,0.8c-1.1,0-1.9-0.3-2.5-1c-0.7-0.7-1-1.6-1-2.8
				c0-1.1,0.3-2,0.9-2.7c0.6-0.7,1.5-1.1,2.5-1.1C57.6,8.6,58.5,9,59.1,9.8z M55.2,10.3c-0.3,0.3-0.5,0.7-0.6,1.3h3.7
				c-0.1-1.2-0.8-1.7-1.9-1.7C55.9,9.9,55.5,10,55.2,10.3z"/>
			<path class="st0" d="M56.4,16.2c-1.2,0-2-0.3-2.6-1c-0.7-0.7-1-1.6-1-2.9c0-1.1,0.3-2.1,0.9-2.8c0.6-0.7,1.6-1.1,2.6-1.1
				c1.4,0.1,2.3,0.5,2.9,1.3c0.6,0.7,0.9,1.8,0.9,3.1v0.1h-5.4c0.1,0.6,0.2,1,0.4,1.3c0.3,0.3,0.8,0.5,1.2,0.5
				c0.5,0,0.9-0.1,1.1-0.3c0.2-0.2,0.4-0.5,0.6-0.9l0-0.1H60l0,0.2c-0.2,0.7-0.5,1.2-1,1.8C58.2,15.9,57.4,16.2,56.4,16.2z
				 M56.3,8.6c-0.9,0-1.8,0.4-2.4,1.1c-0.6,0.7-0.9,1.6-0.9,2.6c0,1.2,0.3,2.1,1,2.7c0.6,0.7,1.3,1,2.4,1c0.9,0,1.7-0.3,2.3-0.8
				c0.4-0.4,0.7-0.9,0.9-1.5h-1.4c-0.2,0.4-0.4,0.7-0.6,0.9c-0.3,0.2-0.8,0.3-1.3,0.3c-0.5,0-1.1-0.2-1.4-0.5
				c-0.3-0.3-0.4-0.9-0.5-1.6l0-0.1h5.4c0-1.2-0.3-2.1-0.9-2.8l0,0C58.4,9.1,57.6,8.7,56.3,8.6z M58.4,11.7h-4l0-0.1
				c0.1-0.6,0.3-1,0.6-1.4c0.3-0.3,0.7-0.4,1.3-0.4c1.2,0,1.9,0.6,2,1.8L58.4,11.7z M54.8,11.5h3.4c-0.1-1-0.7-1.4-1.8-1.4
				c-0.5,0-0.9,0.1-1.1,0.4C55,10.7,54.8,11,54.8,11.5z"/>
		</g>
		<g>
			<path class="st0" d="M68,5.8V16h-1.5v-0.8c-0.5,0.6-1.2,1-2.2,1c-1.1,0-1.9-0.4-2.5-1.1c-0.6-0.7-0.8-1.6-0.8-2.7
				s0.3-1.9,0.8-2.6c0.6-0.8,1.4-1.1,2.4-1.1c0.8,0,1.5,0.4,2.1,1.2V5.8H68z M63,10.6c-0.3,0.4-0.4,1-0.4,1.8s0.1,1.4,0.4,1.8
				c0.3,0.5,0.8,0.8,1.5,0.8c0.6,0,1.1-0.2,1.4-0.7c0.3-0.4,0.4-1,0.4-1.7v-0.1c0-0.8-0.2-1.4-0.6-1.8c-0.3-0.4-0.8-0.6-1.3-0.6
				C63.9,9.9,63.4,10.1,63,10.6z"/>
			<path class="st0" d="M64.3,16.3c-1.1,0-1.9-0.4-2.6-1.1c-0.6-0.7-0.8-1.5-0.8-2.8c0-1,0.3-1.9,0.8-2.7c0.6-0.8,1.4-1.2,2.5-1.2
				c0.7,0,1.4,0.3,2,1V5.7h2v10.5h-1.8v-0.6C65.8,16.1,65.1,16.3,64.3,16.3z M64.2,8.8c-1,0-1.8,0.3-2.3,1c-0.5,0.7-0.8,1.5-0.8,2.5
				c0,1.2,0.2,2,0.8,2.6c0.6,0.7,1.4,1.1,2.4,1.1c0.9,0,1.6-0.3,2.1-1l0.2-0.3v1h1.2v-10h-1.5v4.4L66.2,10C65.6,9.2,65,8.8,64.2,8.8
				z M64.5,15.1c-0.7,0-1.3-0.3-1.6-0.9c-0.3-0.4-0.4-1-0.4-1.9c0-0.9,0.1-1.5,0.4-1.9l0,0c0.4-0.5,1-0.7,1.5-0.5
				c0.6,0,1.1,0.2,1.4,0.7c0.4,0.4,0.6,1,0.6,1.9v0.1c0,0.8-0.1,1.4-0.4,1.8C65.7,14.9,65.2,15.1,64.5,15.1z M63.1,10.7
				c-0.3,0.3-0.4,0.9-0.4,1.7s0.1,1.4,0.4,1.7c0.3,0.5,0.8,0.8,1.4,0.8c0.6,0,1-0.2,1.3-0.6c0.3-0.3,0.4-0.9,0.4-1.6v-0.1
				c0-0.8-0.2-1.3-0.6-1.7c-0.3-0.4-0.7-0.6-1.2-0.6l0,0C63.9,10,63.5,10.2,63.1,10.7z"/>
		</g>
		<g>
			<path class="st0" d="M76.5,11.7V13h-7v-1.3H76.5z"/>
			<path class="st0" d="M76.6,13.1h-7.2v-1.5h7.2V13.1z M69.6,12.9h6.8v-1h-6.8V12.9z"/>
		</g>
		<g>
			<path class="st0" d="M79.8,6l4.9,7.2h0.1V6h1.6v10h-1.6l-5-7.3h-0.1V16h-1.6V6H79.8z"/>
			<path class="st0" d="M86.5,16.1h-1.8l0-0.1L79.8,9v7.2H78V5.9h1.9l4.8,7.1V5.9h1.9V16.1z M84.9,15.9h1.4V6.1h-1.4v7.2h-0.3
				l-4.9-7.2h-1.5v9.8h1.4V8.6h0.3l0,0.1L84.9,15.9z"/>
		</g>
		<g>
			<path class="st0" d="M94,9.8c0.6,0.7,0.9,1.7,0.9,3h-5.4c0.1,0.7,0.2,1.2,0.5,1.5s0.8,0.5,1.3,0.5s0.9-0.1,1.2-0.3
				c0.2-0.2,0.4-0.5,0.6-0.9h1.6c-0.2,0.7-0.5,1.2-1,1.7c-0.6,0.5-1.4,0.8-2.4,0.8c-1.1,0-1.9-0.3-2.5-1c-0.7-0.7-1-1.6-1-2.8
				c0-1.1,0.3-2,0.9-2.7s1.5-1.1,2.5-1.1C92.5,8.6,93.4,9,94,9.8z M90.1,10.3c-0.3,0.3-0.5,0.7-0.6,1.3h3.7
				c-0.1-1.2-0.8-1.7-1.9-1.7C90.8,9.9,90.4,10,90.1,10.3z"/>
			<path class="st0" d="M91.3,16.2c-1.2,0-2-0.3-2.6-1c-0.7-0.7-1-1.6-1-2.9c0-1.1,0.3-2.1,0.9-2.8c0.6-0.7,1.6-1.1,2.6-1.1
				c1.4,0.1,2.3,0.5,2.9,1.3c0.6,0.7,0.9,1.8,0.9,3.1v0.1h-5.4c0.1,0.6,0.2,1,0.4,1.3c0.3,0.3,0.8,0.5,1.2,0.5
				c0.5,0,0.9-0.1,1.1-0.3c0.2-0.2,0.4-0.5,0.6-0.9l0-0.1h1.8l0,0.2c-0.2,0.7-0.5,1.2-1,1.8C93.1,15.9,92.3,16.2,91.3,16.2z
				 M91.2,8.6c-0.9,0-1.8,0.4-2.4,1.1c-0.6,0.7-0.9,1.6-0.9,2.6c0,1.2,0.3,2.1,1,2.7c0.6,0.7,1.3,1,2.4,1c0.9,0,1.7-0.3,2.3-0.8
				c0.4-0.4,0.7-0.9,0.9-1.5h-1.4c-0.2,0.4-0.4,0.7-0.6,0.9c-0.3,0.2-0.8,0.3-1.3,0.3c-0.5,0-1.1-0.2-1.4-0.5
				c-0.3-0.3-0.4-0.9-0.5-1.6l0-0.1h5.4c0-1.2-0.3-2.1-0.9-2.8l0,0C93.3,9.1,92.5,8.7,91.2,8.6z M93.3,11.7h-4l0-0.1
				c0.1-0.6,0.3-1,0.6-1.4h0c0.3-0.3,0.7-0.4,1.3-0.4c1.2,0,1.9,0.6,2,1.8L93.3,11.7z M89.7,11.5h3.4c-0.1-1-0.7-1.4-1.8-1.4
				c-0.5,0-0.9,0.1-1.1,0.4l0,0C89.9,10.7,89.7,11,89.7,11.5z"/>
		</g>
		<g>
			<path class="st0" d="M97.5,8.8L99,11l1.5-2.2h1.9l-2.5,3.4l2.8,3.8h-1.9L99,13.3L97.2,16h-1.9l2.8-3.8l-2.5-3.4
				C95.6,8.8,97.5,8.8,97.5,8.8z"/>
			<path class="st0" d="M102.9,16.1h-2.2L99,13.5l-1.7,2.6h-2.2l2.9-3.9l-2.6-3.5h2.2l1.4,2.1l1.4-2.1h2.2l-2.6,3.5L102.9,16.1z
				 M100.9,15.9h1.6l-2.7-3.7l2.4-3.3h-1.6L99,11.2l-1.6-2.3h-1.6l2.4,3.3l-2.7,3.7h1.6l1.9-2.8L100.9,15.9z"/>
		</g>
		<g>
			<path class="st0" d="M105.8,8.8h1.6v1.3h-1.6v4.1c0,0.2,0,0.3,0.1,0.4c0.1,0.1,0.2,0.1,0.4,0.1h0.9V16H106
				c-0.6,0-1.1-0.2-1.4-0.5s-0.4-0.7-0.4-1.3v-4.1h-1.3V8.8h1.3V7.1l1.6-0.7C105.8,6.4,105.8,8.8,105.8,8.8z"/>
			<path class="st0" d="M107.3,16.1H106c-0.6,0-1.1-0.2-1.5-0.5c-0.3-0.3-0.4-0.7-0.4-1.4v-4h-1.3V8.7h1.3V7l1.8-0.8v2.5h1.6v1.6
				h-1.6v4c0,0.2,0,0.2,0.1,0.3c0.1,0.1,0.1,0.1,0.3,0.1h1V16.1z M103,10h1.3v4.2c0,0.6,0.1,1,0.4,1.2c0.3,0.3,0.8,0.5,1.3,0.5h1.1
				v-1h-0.8c-0.2,0-0.4,0-0.5-0.1c-0.1-0.1-0.1-0.3-0.1-0.5V10h1.6V8.9h-1.6V6.6l-1.3,0.6v1.7H103V10z"/>
		</g>
	</g>
</g>
</svg>
