<?xml version="1.0" encoding="utf-8"?>
<!-- Generator: Adobe Illustrator 26.2.1, SVG Export Plug-In . SVG Version: 6.00 Build 0)  -->
<svg version="1.1" id="图层_1" xmlns="http://www.w3.org/2000/svg" xmlns:xlink="http://www.w3.org/1999/xlink" x="0px" y="0px"
	 viewBox="0 0 112 22" style="enable-background:new 0 0 112 22;" xml:space="preserve">
<style type="text/css">
	.st0{fill:#091440;}
</style>
<g>
	<g>
		<path class="st0" d="M3.8,13.7V7.4c0-0.1,0.1-0.2,0.2-0.3l5.7-3.5c0.1-0.1,0.2-0.1,0.3,0l1.4,0.6c0.1,0.1,0.2,0.2,0.2,0.3v4.8
			c0,0.3-0.3,0.4-0.5,0.3L8,8.3C7.8,8.2,7.5,8.4,7.5,8.6v6.6c0,0.3-0.3,0.4-0.5,0.3L4,14C3.9,14,3.8,13.9,3.8,13.7z"/>
		<path class="st0" d="M17.1,7.2v6.3c0,0.1-0.1,0.2-0.2,0.3l-5.7,3.5c-0.1,0.1-0.2,0.1-0.3,0l-1.4-0.6c-0.1-0.1-0.2-0.2-0.2-0.3
			v-4.8c0-0.3,0.3-0.4,0.5-0.3l3.1,1.4c0.2,0.1,0.5-0.1,0.5-0.3V5.6c0-0.3,0.3-0.4,0.5-0.3l3,1.5C17,6.9,17.1,7,17.1,7.2z"/>
	</g>
	<g>
		<g>
			<path class="st0" d="M25.5,5.5c1.6,0,2.8,0.4,3.7,1.3c0.8,0.8,1.2,2,1.2,3.6S30,13.2,29.2,14c-0.8,0.9-2,1.3-3.7,1.3h-3.6V5.5
				H25.5z M23.5,14h1.7c1.2,0,2.1-0.3,2.7-0.9c0.6-0.6,0.8-1.5,0.8-2.7c0-1.3-0.3-2.2-0.8-2.7c-0.6-0.6-1.5-0.8-2.7-0.8h-1.7V14z"/>
			<path class="st0" d="M25.5,15.4h-3.7v-10h3.7c1.7,0,2.9,0.4,3.8,1.3c0.8,0.8,1.2,2.1,1.2,3.7c0,1.6-0.4,2.9-1.2,3.7
				C28.5,15,27.3,15.4,25.5,15.4z M22,15.2h3.5c1.7,0,2.8-0.4,3.6-1.3c0.8-0.8,1.2-2,1.2-3.5s-0.4-2.7-1.2-3.5
				c-0.9-0.9-2-1.3-3.6-1.3H22V15.2z M25.2,14.1h-1.8V6.8h1.8c1.3,0,2.2,0.3,2.8,0.8c0.5,0.5,0.8,1.5,0.8,2.8c0,1.4-0.3,2.2-0.8,2.8
				C27.4,13.8,26.4,14.1,25.2,14.1z M23.6,13.9h1.6c1.2,0,2-0.3,2.6-0.9c0.5-0.5,0.8-1.3,0.8-2.6c0-1.2-0.3-2.1-0.8-2.6
				C27.3,7.3,26.5,7,25.2,7h-1.6V13.9z"/>
		</g>
		<g>
			<path class="st0" d="M37.5,9.2c0.6,0.7,0.9,1.7,0.9,3H33c0.1,0.7,0.2,1.2,0.5,1.5s0.8,0.5,1.3,0.5s0.9-0.1,1.2-0.3
				c0.2-0.2,0.4-0.5,0.6-0.9h1.6c-0.2,0.7-0.5,1.2-1,1.7c-0.6,0.5-1.4,0.8-2.4,0.8c-1.1,0-1.9-0.3-2.5-1c-0.7-0.7-1-1.6-1-2.8
				c0-1.1,0.3-2,0.9-2.7c0.7-0.6,1.5-1,2.6-1C36,8,36.9,8.4,37.5,9.2z M33.6,9.8c-0.3,0.3-0.5,0.7-0.6,1.3h3.7
				c-0.1-1.2-0.8-1.7-1.9-1.7C34.3,9.3,33.9,9.5,33.6,9.8z"/>
			<path class="st0" d="M34.8,15.6c-1.2,0-2-0.3-2.6-1c-0.7-0.7-1-1.6-1-2.9c0-1.1,0.3-2.1,0.9-2.8c0.8-0.7,1.7-1,2.7-1
				c1.2,0,2.2,0.4,2.8,1.2c0.6,0.7,0.9,1.8,0.9,3.1v0.1h-5.4c0.1,0.6,0.2,1,0.4,1.3c0.3,0.3,0.8,0.5,1.2,0.5c0.5,0,0.9-0.1,1.1-0.3
				c0.2-0.2,0.4-0.5,0.6-0.9l0-0.1h1.8l0,0.2c-0.2,0.7-0.5,1.2-1,1.8C36.6,15.3,35.8,15.6,34.8,15.6z M34.8,8.1c-1,0-1.7,0.3-2.5,1
				c-0.6,0.7-0.9,1.5-0.9,2.6c0,1.2,0.3,2.1,1,2.7c0.6,0.7,1.3,1,2.4,1c0.9,0,1.7-0.3,2.3-0.8c0.4-0.4,0.7-0.9,0.9-1.5h-1.4
				c-0.2,0.4-0.4,0.7-0.6,0.9c-0.3,0.2-0.8,0.3-1.3,0.3c-0.5,0-1.1-0.2-1.4-0.5c-0.3-0.3-0.4-0.9-0.5-1.6l0-0.1h5.4
				c0-1.2-0.3-2.1-0.9-2.8l0,0C36.8,8.5,36,8.1,34.8,8.1z M36.8,11.2h-4l0-0.1c0.1-0.6,0.3-1,0.6-1.4c0.4-0.4,0.8-0.5,1.3-0.4
				c0,0,0,0,0,0c1.2,0,1.9,0.6,2,1.8L36.8,11.2z M33.2,11h3.4c-0.1-1-0.7-1.4-1.8-1.4c-0.4-0.1-0.8,0-1.1,0.4
				C33.4,10.2,33.2,10.5,33.2,11z"/>
		</g>
		<g>
			<path class="st0" d="M45.1,8.6c0.6,0.4,0.9,1.1,1.1,2h-1.6c-0.1-0.5-0.3-0.8-0.6-1s-0.7-0.3-1.2-0.3c-0.6,0-1,0.2-1.4,0.7
				c-0.3,0.4-0.5,1-0.5,1.8s0.2,1.4,0.5,1.9c0.3,0.4,0.8,0.7,1.4,0.7c1.1,0,1.6-0.5,1.8-1.6h1.6c-0.2,1-0.5,1.7-1.1,2.2
				s-1.3,0.7-2.2,0.7c-1.1,0-2-0.4-2.6-1.1c-0.6-0.7-0.9-1.6-0.9-2.7s0.3-2,0.9-2.7C40.8,8.4,41.7,8,42.8,8
				C43.8,8,44.5,8.2,45.1,8.6z"/>
			<path class="st0" d="M42.9,15.8c-1.1,0-2.1-0.4-2.7-1.1c-0.6-0.7-0.9-1.7-0.9-2.8c0-1.1,0.3-2.1,0.9-2.8c0.5-0.8,1.4-1.2,2.6-1.2
				c1,0,1.7,0.2,2.4,0.6c0.6,0.4,0.9,1,1.2,2.1l0,0.2h-1.9l0-0.1c-0.1-0.4-0.3-0.7-0.5-0.9c-0.3-0.2-0.7-0.3-1.1-0.3
				c-0.6,0-0.9,0.2-1.3,0.7c-0.3,0.4-0.5,1-0.5,1.7c0,0.7,0.2,1.3,0.5,1.8c0.3,0.4,0.8,0.6,1.3,0.6c1,0,1.5-0.4,1.7-1.5l0-0.1h1.9
				l0,0.1c-0.2,1.1-0.6,1.8-1.1,2.3C44.6,15.6,43.9,15.8,42.9,15.8z M42.8,8.1c-1.1,0-1.9,0.4-2.4,1.1c-0.6,0.7-0.9,1.6-0.9,2.6
				s0.3,1.9,0.9,2.6c0.6,0.7,1.5,1.1,2.5,1.1c0.9,0,1.6-0.2,2.1-0.7c0.5-0.4,0.8-1,1-2h-1.3c-0.2,1.1-0.8,1.6-1.9,1.6
				c-0.6,0-1.1-0.3-1.5-0.8c-0.4-0.6-0.5-1.2-0.5-2c0-0.8,0.2-1.4,0.5-1.9c0.4-0.5,0.9-0.8,1.5-0.8c0.5,0,1,0.1,1.3,0.3
				c0.3,0.2,0.5,0.5,0.6,1H46c-0.2-0.9-0.5-1.5-1-1.8C44.4,8.3,43.7,8.1,42.8,8.1z"/>
		</g>
		<g>
			<path class="st0" d="M51.7,8.2v1.6c-0.4-0.1-0.7-0.2-1-0.2c-0.4,0-0.8,0.2-1.1,0.5C49.2,10.5,49,11,49,11.6v3.8h-1.6V8.2H49v1
				c0.2-0.4,0.4-0.6,0.7-0.8C50,8.1,50.4,8,50.8,8C51.2,8,51.5,8.1,51.7,8.2z"/>
			<path class="st0" d="M49.1,15.5h-1.9V8.1h1.9v0.7c0.2-0.2,0.3-0.3,0.5-0.5c0.3-0.3,0.7-0.4,1.2-0.4c0.4,0,0.7,0.1,1,0.2l0.1,0V10
				l-0.2,0c-0.1,0-0.2,0-0.2-0.1c-0.3-0.1-0.5-0.1-0.7-0.1c-0.3,0-0.7,0.2-1,0.5c-0.4,0.4-0.6,0.8-0.6,1.4V15.5z M47.5,15.3h1.4
				v-3.7c0-0.6,0.2-1.2,0.6-1.6c0.3-0.3,0.8-0.5,1.2-0.5c0.3,0,0.5,0.1,0.8,0.1c0,0,0.1,0,0.1,0V8.3c-0.2-0.1-0.4-0.2-0.8-0.2
				c-0.4,0-0.8,0.1-1,0.4c-0.3,0.2-0.5,0.4-0.7,0.8l-0.2,0.5V8.3h-1.4V15.3z"/>
		</g>
		<g>
			<path class="st0" d="M58.4,9.2c0.6,0.7,0.9,1.7,0.9,3h-5.4c0.1,0.7,0.2,1.2,0.5,1.5s0.8,0.5,1.3,0.5s0.9-0.1,1.2-0.3
				c0.2-0.2,0.4-0.5,0.6-0.9h1.6c-0.2,0.7-0.5,1.2-1,1.7c-0.6,0.5-1.4,0.8-2.4,0.8c-1.1,0-1.9-0.3-2.5-1c-0.7-0.7-1-1.6-1-2.8
				c0-1.1,0.3-2,0.9-2.7c0.7-0.6,1.5-1,2.6-1C56.9,8,57.8,8.4,58.4,9.2z M54.5,9.8c-0.3,0.3-0.5,0.7-0.6,1.3h3.7
				c-0.1-1.2-0.8-1.7-1.9-1.7C55.2,9.3,54.8,9.5,54.5,9.8z"/>
			<path class="st0" d="M55.7,15.6c-1.2,0-2-0.3-2.6-1c-0.7-0.7-1-1.6-1-2.9c0-1.1,0.3-2.1,0.9-2.8c0.8-0.7,1.7-1,2.7-1
				c1.2,0,2.2,0.4,2.8,1.2c0.6,0.7,0.9,1.8,0.9,3.1v0.1H54c0.1,0.6,0.2,1,0.4,1.3c0.3,0.3,0.8,0.5,1.2,0.5c0.5,0,0.9-0.1,1.1-0.3
				c0.2-0.2,0.4-0.5,0.6-0.9l0-0.1h1.8l0,0.2c-0.2,0.7-0.5,1.2-1,1.8C57.5,15.3,56.7,15.6,55.7,15.6z M55.7,8.1c-1,0-1.7,0.3-2.5,1
				c-0.6,0.7-0.9,1.5-0.9,2.6c0,1.2,0.3,2.1,1,2.7c0.6,0.7,1.3,1,2.4,1c0.9,0,1.7-0.3,2.3-0.8c0.4-0.4,0.7-0.9,0.9-1.5h-1.4
				c-0.2,0.4-0.4,0.7-0.6,0.9c-0.3,0.2-0.8,0.3-1.3,0.3c-0.5,0-1.1-0.2-1.4-0.5c-0.3-0.3-0.4-0.9-0.5-1.6l0-0.1h5.4
				c0-1.2-0.3-2.1-0.9-2.8l0,0C57.7,8.5,56.9,8.1,55.7,8.1z M57.7,11.2h-4l0-0.1c0.1-0.6,0.3-1,0.6-1.4l0,0c0.4-0.4,0.8-0.5,1.3-0.4
				c0,0,0,0,0,0c1.2,0,1.9,0.6,2,1.8L57.7,11.2z M54.1,11h3.4c-0.1-1-0.7-1.4-1.8-1.4c-0.4-0.1-0.8,0-1.1,0.4
				C54.3,10.2,54.1,10.5,54.1,11z"/>
		</g>
		<g>
			<path class="st0" d="M67.2,5.3v10.1h-1.5v-0.8c-0.5,0.6-1.2,1-2.2,1c-1.1,0-1.9-0.4-2.5-1.1c-0.6-0.7-0.8-1.6-0.8-2.7
				s0.3-1.9,0.8-2.6C61.6,8.4,62.5,8,63.5,8c0.8,0,1.5,0.4,2.1,1.2V5.3H67.2z M62.3,10c-0.3,0.4-0.4,1-0.4,1.8s0.1,1.4,0.4,1.8
				c0.3,0.5,0.8,0.8,1.5,0.8c0.6,0,1.1-0.2,1.4-0.7c0.3-0.4,0.4-1,0.4-1.7v-0.1c0-0.8-0.2-1.4-0.6-1.8c-0.3-0.4-0.8-0.6-1.3-0.6
				C63.1,9.3,62.6,9.5,62.3,10z"/>
			<path class="st0" d="M63.5,15.7c-1.1,0-1.9-0.4-2.6-1.1c-0.6-0.7-0.8-1.5-0.8-2.8c0-1,0.3-1.9,0.8-2.7c0.6-0.8,1.5-1.3,2.6-1.3
				c0.7,0,1.4,0.3,2,1V5.2h1.9v10.4h-1.8v-0.6C65,15.5,64.3,15.7,63.5,15.7z M63.5,8.1c-1,0-1.8,0.4-2.4,1.2
				c-0.5,0.7-0.8,1.5-0.8,2.5c0,1.2,0.2,2,0.8,2.6c0.6,0.7,1.4,1.1,2.4,1.1c0.9,0,1.6-0.3,2.1-1l0.2-0.3v1h1.2V5.4h-1.4v4.2
				l-0.2-0.3C64.9,8.5,64.3,8.1,63.5,8.1z M63.8,14.5c-0.7,0-1.3-0.3-1.6-0.9c-0.3-0.4-0.4-1-0.4-1.9c0-0.9,0.1-1.5,0.4-1.9
				c0.3-0.6,0.9-0.8,1.5-0.6c0.6,0,1.1,0.2,1.4,0.6c0.4,0.4,0.6,1,0.6,1.9V12c0,0.8-0.1,1.4-0.4,1.8C65,14.3,64.5,14.5,63.8,14.5z
				 M63.3,9.5c-0.4,0-0.6,0.2-0.8,0.5l0,0C62.1,10.4,62,11,62,11.8s0.1,1.4,0.4,1.7c0.3,0.5,0.8,0.8,1.4,0.8c0.6,0,1-0.2,1.3-0.6
				c0.3-0.3,0.4-0.9,0.4-1.6v-0.1c0-0.8-0.2-1.3-0.6-1.7c-0.3-0.4-0.7-0.6-1.2-0.6l0,0C63.5,9.6,63.4,9.5,63.3,9.5z"/>
		</g>
		<g>
			<path class="st0" d="M75.8,11.2v1.3h-7v-1.3H75.8z"/>
			<path class="st0" d="M75.9,12.6h-7.2v-1.5h7.2V12.6z M68.9,12.4h6.8v-1h-6.8V12.4z"/>
		</g>
		<g>
			<path class="st0" d="M79.1,5.5l4.9,7.2l0,0V5.5h1.6v9.9H84l-5-7.3h-0.1v7.3h-1.6V5.5H79.1z"/>
			<path class="st0" d="M85.7,15.5h-1.8l0-0.1L79,8.4v7.2h-1.9V5.4h2l4.7,6.9V5.4h1.8V15.5z M84.1,15.3h1.4V5.6h-1.3v7.5L79,5.6
				h-1.6v9.7h1.4V8h0.3l0,0.1L84.1,15.3z"/>
		</g>
		<g>
			<path class="st0" d="M93.2,9.2c0.6,0.7,0.9,1.7,0.9,3h-5.4c0.1,0.7,0.2,1.2,0.5,1.5s0.8,0.5,1.3,0.5s0.9-0.1,1.2-0.3
				c0.2-0.2,0.4-0.5,0.6-0.9H94c-0.2,0.7-0.5,1.2-1,1.7c-0.6,0.5-1.4,0.8-2.4,0.8c-1.1,0-1.9-0.3-2.5-1c-0.7-0.7-1-1.6-1-2.8
				c0-1.1,0.3-2,0.9-2.7c0.6-0.6,1.5-1,2.5-1C91.7,8,92.6,8.4,93.2,9.2z M89.3,9.8c-0.3,0.3-0.5,0.7-0.6,1.3h3.7
				c-0.1-1.2-0.8-1.7-1.9-1.7C90,9.3,89.6,9.5,89.3,9.8z"/>
			<path class="st0" d="M90.6,15.6c-1.2,0-2-0.3-2.6-1c-0.7-0.7-1-1.6-1-2.9c0-1.1,0.3-2.1,0.9-2.8c0.7-0.7,1.6-1,2.6-1
				c1.2,0,2.2,0.4,2.8,1.2c0.6,0.7,0.9,1.8,0.9,3.1v0.1h-5.4c0.1,0.6,0.2,1,0.4,1.3c0.3,0.3,0.8,0.5,1.2,0.5c0.5,0,0.9-0.1,1.1-0.3
				c0.2-0.2,0.4-0.5,0.6-0.9l0-0.1h1.9l0,0.2c-0.2,0.7-0.5,1.2-1,1.8C92.4,15.3,91.6,15.6,90.6,15.6z M90.5,8.1
				c-0.9,0-1.8,0.4-2.4,1c-0.6,0.7-0.9,1.5-0.9,2.6c0,1.2,0.3,2.1,1,2.7c0.6,0.7,1.3,1,2.4,1c0.9,0,1.7-0.3,2.3-0.8
				c0.4-0.4,0.7-0.9,0.9-1.5h-1.5c-0.2,0.4-0.4,0.7-0.6,0.9c-0.3,0.2-0.8,0.3-1.3,0.3c-0.5,0-1.1-0.2-1.4-0.5
				c-0.3-0.3-0.4-0.9-0.5-1.6l0-0.1H94c0-1.2-0.3-2.1-0.9-2.8l0,0C92.5,8.5,91.7,8.1,90.5,8.1z M92.5,11.2h-4l0-0.1
				c0.1-0.6,0.3-1,0.6-1.4l0,0c0.4-0.4,0.8-0.5,1.3-0.4c0,0,0,0,0,0c1.2,0,1.9,0.6,2,1.8L92.5,11.2z M88.9,11h3.4
				c-0.1-1-0.7-1.4-1.8-1.4c-0.4-0.1-0.8,0-1.1,0.4l0,0C89.1,10.2,88.9,10.5,88.9,11z"/>
		</g>
		<g>
			<path class="st0" d="M96.8,8.2l1.5,2.2l1.5-2.2h1.9l-2.5,3.4l2.8,3.8h-1.9l-1.8-2.7l-1.8,2.7h-1.9l2.8-3.8l-2.5-3.4
				C94.9,8.2,96.8,8.2,96.8,8.2z"/>
			<path class="st0" d="M102.2,15.5H100l-1.7-2.6l-1.7,2.6h-2.2l2.9-3.9l-2.6-3.5h2.2l1.4,2.1l1.4-2.1h2.2l-2.6,3.5L102.2,15.5z
				 M100.2,15.3h1.6L99,11.6l2.4-3.3h-1.6l-1.6,2.3l-1.6-2.3h-1.6l2.4,3.3l-2.7,3.7h1.6l1.9-2.8L100.2,15.3z"/>
		</g>
		<g>
			<path class="st0" d="M105.1,8.2h1.6v1.3h-1.6v4.1c0,0.2,0,0.3,0.1,0.4c0.1,0.1,0.2,0.1,0.4,0.1h0.9v1.3h-1.2
				c-0.6,0-1.1-0.2-1.4-0.5s-0.4-0.7-0.4-1.3V9.5h-1.3V8.2h1.3V6.5l1.6-0.7V8.2z"/>
			<path class="st0" d="M106.6,15.5h-1.3c-0.6,0-1.1-0.2-1.5-0.5c-0.3-0.3-0.4-0.7-0.4-1.4v-4h-1.3V8.1h1.3V6.4l1.8-0.8v2.5h1.6v1.5
				h-1.6v4c0,0.2,0,0.3,0.1,0.3s0.1,0.1,0.3,0.1h1V15.5z M102.3,9.4h1.3v4.2c0,0.6,0.1,1,0.4,1.2c0.3,0.3,0.8,0.5,1.3,0.5h1.1v-1.1
				h-0.8c-0.2,0-0.4,0-0.5-0.1c-0.1-0.1-0.1-0.3-0.1-0.5V9.4h1.6v-1H105V6l-1.3,0.6v1.7h-1.3V9.4z"/>
		</g>
	</g>
</g>
</svg>
