<?xml version="1.0" encoding="utf-8"?>
<!-- Generator: Adobe Illustrator 26.4.0, SVG Export Plug-In . SVG Version: 6.00 Build 0)  -->
<svg version="1.1" id="图层_1" xmlns="http://www.w3.org/2000/svg" xmlns:xlink="http://www.w3.org/1999/xlink" x="0px" y="0px"
	 viewBox="0 0 112.5 22" style="enable-background:new 0 0 112.5 22;" xml:space="preserve">
<style type="text/css">
	.st0{fill:#091440;}
</style>
<g>
	<g>
		<path class="st0" d="M3.8,13.7V7.4c0-0.1,0.1-0.2,0.2-0.3l5.7-3.5c0.1-0.1,0.2-0.1,0.3,0l1.4,0.6c0.1,0.1,0.2,0.2,0.2,0.3v4.8
			c0,0.3-0.3,0.4-0.5,0.3L8,8.3C7.8,8.2,7.5,8.4,7.5,8.6v6.6c0,0.3-0.3,0.4-0.5,0.3L4,14C3.9,14,3.8,13.9,3.8,13.7z"/>
		<path class="st0" d="M17.1,7.2v6.3c0,0.1-0.1,0.2-0.2,0.3l-5.7,3.5c-0.1,0.1-0.2,0.1-0.3,0l-1.4-0.6c-0.1-0.1-0.2-0.2-0.2-0.3
			v-4.8c0-0.3,0.3-0.4,0.5-0.3l3.1,1.4c0.2,0.1,0.5-0.1,0.5-0.3V5.6c0-0.3,0.3-0.4,0.5-0.3l3,1.5C17,6.9,17.1,7,17.1,7.2z"/>
	</g>
</g>
<g>
	<path class="st0" d="M30.3,10.6c0,1.8-0.5,3.1-1.6,3.8c-1,0.8-2.5,1.1-4.2,1.1h-2.7v-10h2.7c2,0,3.4,0.4,4.4,1.2
		S30.3,8.8,30.3,10.6z M28.4,10.6c0-1.4-0.3-2.5-1-3s-1.6-0.9-2.9-0.9h-0.9v7.8h0.9c1.3,0,2.3-0.3,2.9-0.8S28.4,12.1,28.4,10.6z"/>
	<path class="st0" d="M40.8,11.6c-0.1,1.5-0.5,2.5-1.3,3.2s-1.8,0.9-2.9,0.9c-1.3,0-2.4-0.4-3.3-1.1c-0.9-0.8-1.4-2-1.4-3.7
		c0-1.8,0.4-3.2,1.3-4.1s2-1.3,3.4-1.3c1.2,0,2.2,0.3,2.9,1c0.8,0.6,1.1,1.6,1.1,2.7h-1.8c0-0.9-0.2-1.5-0.6-1.9
		c-0.4-0.4-0.9-0.6-1.7-0.6c-0.9,0-1.5,0.3-2.1,1c-0.5,0.6-0.8,1.7-0.8,3.3c0,1.4,0.3,2.4,0.8,3s1.2,0.8,2,0.8
		c0.6,0,1.1-0.2,1.6-0.6s0.7-1.2,0.7-2.4h2.1V11.6z"/>
	<path class="st0" d="M51.2,15.6h-1.9l-2.9-4.3h-2.1v4.3h-1.9v-10h4c1.3,0,2.3,0.2,3.1,0.7c0.8,0.4,1.2,1.2,1.2,2.2
		c0,0.8-0.3,1.4-0.8,1.8c-0.5,0.4-1.2,0.7-1.9,0.8L51.2,15.6z M48.9,8.4c0-0.5-0.2-1-0.7-1.3C47.8,6.8,47,6.7,46,6.7h-1.8v3.5h2.3
		c0.6,0,1.2-0.1,1.7-0.4C48.7,9.5,48.9,9.1,48.9,8.4z"/>
	<path class="st0" d="M61,15.6h-2l-4.4-7.3h-0.1v7.3h-1.9v-10h2l4.4,7.3h0.1V5.6H61V15.6z"/>
</g>
</svg>
