<?xml version="1.0" encoding="utf-8"?>
<!-- Generator: Adobe Illustrator 26.4.0, SVG Export Plug-In . SVG Version: 6.00 Build 0)  -->
<svg version="1.1" id="图层_1" xmlns="http://www.w3.org/2000/svg" xmlns:xlink="http://www.w3.org/1999/xlink" x="0px" y="0px"
	 viewBox="0 0 113.8 22" style="enable-background:new 0 0 113.8 22;" xml:space="preserve">
<style type="text/css">
	.st0{fill:#A0C0E0;}
</style>
<g>
	<g>
		<path class="st0" d="M4.6,14.3V8c0-0.1,0.1-0.2,0.2-0.3l5.7-3.5c0.1-0.1,0.2-0.1,0.3,0l1.4,0.6c0.1,0.1,0.2,0.2,0.2,0.3V10
			c0,0.3-0.3,0.4-0.5,0.3L8.8,8.9c-0.3-0.1-0.5,0-0.5,0.3v6.6c0,0.3-0.3,0.4-0.5,0.3l-3-1.5C4.7,14.5,4.6,14.4,4.6,14.3z"/>
		<path class="st0" d="M17.8,7.7V14c0,0.1-0.1,0.2-0.2,0.3L12,17.8c-0.1,0.1-0.2,0.1-0.3,0l-1.4-0.6C10.1,17.1,10,17,10,16.8V12
			c0-0.3,0.3-0.4,0.5-0.3l3.1,1.4c0.2,0.1,0.5-0.1,0.5-0.3V6.2c0-0.3,0.3-0.4,0.5-0.3l3,1.5C17.8,7.5,17.8,7.6,17.8,7.7z"/>
	</g>
</g>
<g>
	<path class="st0" d="M31.3,11c0,1.8-0.5,3.1-1.6,3.8c-1.1,0.8-2.5,1.1-4.3,1.1h-2.8v-10h2.8c2,0,3.5,0.4,4.5,1.2
		C30.8,7.9,31.3,9.2,31.3,11z M29.3,11c0-1.4-0.3-2.5-1-3.1S26.7,7,25.4,7h-0.9v7.8h0.9c1.3,0,2.3-0.3,2.9-0.9
		C29,13.4,29.3,12.4,29.3,11z"/>
	<path class="st0" d="M41.9,12c-0.1,1.5-0.5,2.5-1.3,3.2c-0.8,0.6-1.8,0.9-2.9,0.9c-1.3,0-2.4-0.4-3.4-1.1c-0.9-0.8-1.4-2-1.4-3.7
		c0-1.8,0.5-3.2,1.4-4.1s2.1-1.4,3.5-1.4c1.2,0,2.2,0.3,3,1c0.8,0.6,1.2,1.6,1.1,2.7h-1.8c0-0.9-0.2-1.5-0.6-1.9
		c-0.4-0.4-1-0.6-1.7-0.6c-0.9,0-1.6,0.3-2.1,1c-0.5,0.6-0.8,1.7-0.8,3.3c0,1.4,0.3,2.4,0.8,3c0.5,0.6,1.2,0.9,2,0.9
		c0.6,0,1.1-0.2,1.6-0.6c0.5-0.4,0.7-1.2,0.7-2.4h1.9V12z"/>
	<path class="st0" d="M52.5,16h-2l-2.9-4.3h-2.1V16h-1.9V6h4.1c1.3,0,2.4,0.2,3.2,0.7s1.2,1.2,1.2,2.2c0,0.8-0.3,1.4-0.8,1.8
		c-0.5,0.4-1.2,0.7-1.9,0.8L52.5,16z M50.2,8.8c0-0.5-0.2-1-0.7-1.3S48.3,7,47.2,7h-1.8v3.5h2.3c0.7,0,1.2-0.1,1.7-0.4
		C50,9.9,50.2,9.4,50.2,8.8z"/>
	<path class="st0" d="M62.5,16h-2L56,8.7h-0.1V16H54V6h2l4.5,7.3h0.1V5.9h1.9V16z"/>
</g>
</svg>
