<?xml version="1.0" encoding="utf-8"?>
<!-- Generator: Adobe Illustrator 26.2.1, SVG Export Plug-In . SVG Version: 6.00 Build 0)  -->
<svg version="1.1" id="图层_1" xmlns="http://www.w3.org/2000/svg" xmlns:xlink="http://www.w3.org/1999/xlink" x="0px" y="0px"
	 viewBox="0 0 106 20" style="enable-background:new 0 0 106 20;" xml:space="preserve">
<style type="text/css">
	.st0{fill:#2F4D8C;}
</style>
<g>
	<g transform="translate(30.375 7.536)">
		<path class="st0" d="M-1.3-0.8h-3.6v-2.4H5v2.4H1.4v9.5h-2.6V-0.8z"/>
		<path class="st0" d="M6.2-3.2h9v2.3H8.8v2.4h5.6v2.3H8.8v2.5h6.5v2.3H6.2L6.2-3.2L6.2-3.2z"/>
		<path class="st0" d="M16.3,7l1.6-1.8c1,0.9,2.2,1.4,3.6,1.5c1.1,0,1.7-0.4,1.7-1.1v0c0-0.7-0.4-1-2.4-1.5c-2.4-0.6-4-1.3-4-3.6v0
			c0-2.2,1.7-3.6,4.2-3.6c1.6,0,3.2,0.5,4.4,1.5L24,0.2c-0.9-0.7-2-1.1-3.1-1.2c-1,0-1.5,0.5-1.5,1v0c0,0.8,0.5,1,2.6,1.6
			c2.4,0.6,3.8,1.5,3.8,3.6v0c0,2.4-1.8,3.7-4.4,3.7C19.4,8.9,17.7,8.2,16.3,7z"/>
		<path class="st0" d="M30.1-0.8h-3.6v-2.4h9.9v2.4h-3.6v9.5h-2.6L30.1-0.8L30.1-0.8z"/>
		<path class="st0" d="M37.6-3.2H40l5.6,7.4v-7.4h2.6V8.8h-2.2l-5.8-7.6v7.6h-2.6V-3.2z"/>
		<path class="st0" d="M50.5-3.2h9v2.3h-6.4v2.4h5.6v2.3h-5.6v2.5h6.5v2.3h-9.1L50.5-3.2L50.5-3.2z"/>
		<path class="st0" d="M64.2-0.8h-3.6v-2.4h9.9v2.4h-3.6v9.5h-2.6L64.2-0.8L64.2-0.8z"/>
	</g>
	<g>
		<path class="st0" d="M5.2,14.2V6.2c0-0.2,0.1-0.3,0.2-0.4l7.2-4.4c0.1-0.1,0.3-0.1,0.4,0l1.8,0.8C14.9,2.3,15,2.5,15,2.6v6.1
			c0,0.3-0.3,0.6-0.6,0.4l-3.9-1.8c-0.3-0.1-0.6,0.1-0.6,0.4v8.4c0,0.3-0.4,0.6-0.7,0.4l-3.8-1.9C5.3,14.5,5.2,14.3,5.2,14.2z"/>
		<path class="st0" d="M21.9,5.8v7.9c0,0.2-0.1,0.3-0.2,0.4l-7.2,4.4c-0.1,0.1-0.3,0.1-0.4,0l-1.8-0.8c-0.2-0.1-0.3-0.2-0.3-0.4
			v-6.1c0-0.3,0.3-0.6,0.6-0.4l3.9,1.8c0.3,0.1,0.6-0.1,0.6-0.4V3.9c0-0.3,0.4-0.6,0.7-0.4l3.8,1.9C21.8,5.5,21.9,5.7,21.9,5.8z"/>
	</g>
</g>
</svg>
